<svg xmlns="http://www.w3.org/2000/svg" xmlns:xlink="http://www.w3.org/1999/xlink" width="500" zoomAndPan="magnify" viewBox="0 0 375 374.999991" height="500" preserveAspectRatio="xMidYMid meet" version="1.0"><defs><g/><clipPath id="d39876b260"><path d="M 40.929688 46.757812 L 333.960938 46.757812 L 333.960938 339.789062 L 40.929688 339.789062 Z M 40.929688 46.757812 " clip-rule="nonzero"/></clipPath><clipPath id="7070e098c4"><path d="M 71 100.488281 L 217.46875 100.488281 L 217.46875 323.191406 L 71 323.191406 Z M 71 100.488281 " clip-rule="nonzero"/></clipPath></defs><g clip-path="url(#d39876b260)"><path fill="#1b019b" d="M 187.5 339.894531 C 106.523438 339.894531 40.929688 273.847656 40.929688 193.328125 C 40.929688 112.804688 106.523438 46.757812 187.5 46.757812 C 268.472656 46.757812 334.066406 112.351562 334.066406 193.328125 C 334.066406 274.300781 268.019531 339.894531 187.5 339.894531 Z M 187.5 55.804688 C 111.5 55.804688 49.980469 117.328125 49.980469 193.328125 C 49.980469 269.324219 111.5 330.847656 187.5 330.847656 C 263.496094 330.847656 325.019531 269.324219 325.019531 193.328125 C 325.019531 117.328125 263.042969 55.804688 187.5 55.804688 Z M 187.5 55.804688 " fill-opacity="1" fill-rule="nonzero"/></g><g clip-path="url(#7070e098c4)"><path fill="#1b019b" d="M 214.316406 108.6875 C 212.445312 106.484375 209.679688 105.582031 206.910156 105.308594 C 202.914062 104.910156 198.792969 106.578125 195.425781 108.566406 C 188.550781 112.625 182.050781 117.292969 175.890625 122.363281 C 163.972656 132.171875 153.652344 143.835938 144.917969 156.542969 C 143.390625 158.765625 141.917969 161.03125 140.496094 163.324219 C 134.535156 163.988281 128.503906 164.015625 122.546875 163.292969 C 117.835938 162.582031 113.203125 161.382812 108.78125 159.601562 C 105.855469 158.296875 103.066406 156.726562 100.480469 154.839844 C 98.46875 153.21875 96.632812 151.410156 95.011719 149.398438 C 94.007812 148 93.105469 146.527344 92.363281 144.976562 C 91.714844 143.289062 91.25 141.546875 90.957031 139.765625 C 90.777344 137.84375 90.789062 135.914062 90.984375 133.988281 C 91.296875 132.140625 91.777344 130.328125 92.4375 128.570312 C 93.113281 127.085938 93.917969 125.671875 94.867188 124.34375 C 95.015625 124.167969 95.167969 123.992188 95.324219 123.820312 C 95.460938 129.378906 96.117188 134.929688 97.230469 140.382812 C 97.542969 141.910156 98.894531 143.484375 100.203125 144.25 C 101.589844 145.0625 103.636719 145.40625 105.191406 144.902344 C 106.757812 144.394531 108.265625 143.425781 109.058594 141.929688 C 109.902344 140.332031 110.074219 138.722656 109.710938 136.941406 C 109.378906 135.316406 109.101562 133.683594 108.863281 132.042969 C 108.148438 126.144531 108.039062 120.191406 108.558594 114.273438 C 108.609375 113.726562 108.515625 113.136719 108.339844 112.550781 C 108.574219 111.054688 108.414062 109.449219 107.578125 108.148438 C 106.710938 106.808594 105.34375 105.46875 103.707031 105.175781 C 95.570312 103.71875 87.429688 102.265625 79.292969 100.808594 C 77.542969 100.496094 75.886719 100.535156 74.304688 101.460938 C 72.964844 102.246094 71.683594 103.785156 71.332031 105.328125 C 70.953125 106.984375 71.035156 108.84375 71.984375 110.3125 C 72.847656 111.65625 74.214844 112.996094 75.851562 113.289062 C 79.171875 113.882812 82.496094 114.476562 85.816406 115.070312 C 80.382812 121.304688 77.558594 130.085938 77.902344 138.25 C 78.046875 141.605469 78.589844 145.046875 79.78125 148.199219 C 81.300781 152.21875 83.445312 155.660156 86.179688 158.96875 C 91.230469 165.082031 98.183594 169.210938 105.453125 172.140625 C 112.484375 174.972656 120.121094 176.304688 127.667969 176.683594 C 129.429688 176.773438 131.195312 176.792969 132.960938 176.765625 C 129.488281 183.640625 126.445312 190.738281 123.828125 197.984375 C 117.679688 215 114.136719 232.886719 112.605469 250.894531 C 111.050781 269.121094 111.855469 287.414062 114.320312 305.523438 C 114.910156 309.871094 115.609375 314.199219 116.410156 318.515625 C 116.691406 320.03125 118.097656 321.628906 119.382812 322.382812 C 120.769531 323.195312 122.816406 323.539062 124.371094 323.035156 C 125.9375 322.527344 127.445312 321.558594 128.238281 320.058594 C 129.089844 318.445312 129.222656 316.867188 128.890625 315.074219 C 128.121094 310.925781 127.449219 306.761719 126.875 302.585938 C 124.792969 286.578125 124.164062 270.371094 125.285156 254.261719 C 125.589844 249.890625 126.03125 245.53125 126.597656 241.1875 C 128.457031 227.859375 131.5625 214.699219 136.09375 202.023438 C 137.097656 199.210938 138.175781 196.429688 139.320312 193.671875 C 142.039062 187.300781 145.121094 181.082031 148.5625 175.070312 C 149.09375 174.96875 149.625 174.871094 150.15625 174.757812 C 164.898438 171.628906 178.613281 164.675781 190.289062 155.222656 C 196.125 150.5 201.195312 145.039062 205.730469 139.0625 C 207.878906 136.230469 209.84375 133.257812 211.601562 130.167969 C 212.457031 128.664062 213.261719 127.128906 214.015625 125.570312 C 215.019531 123.5 216.160156 121.34375 216.667969 119.089844 C 217.523438 115.296875 216.851562 111.667969 214.316406 108.6875 Z M 194.671875 132.359375 C 190.429688 137.734375 185.554688 142.578125 180.183594 146.820312 C 174.453125 151.148438 168.226562 154.785156 161.640625 157.648438 C 160.867188 157.964844 160.09375 158.269531 159.3125 158.566406 C 159.882812 157.792969 160.457031 157.023438 161.039062 156.261719 C 168.882812 146.226562 177.863281 137.097656 187.890625 129.238281 C 190.460938 127.277344 193.089844 125.390625 195.789062 123.605469 C 198.023438 122.125 200.3125 120.535156 202.71875 119.277344 C 200.46875 123.886719 197.757812 128.261719 194.671875 132.359375 Z M 194.671875 132.359375 " fill-opacity="1" fill-rule="nonzero"/></g><g fill="#1b019b" fill-opacity="1"><g transform="translate(141.097518, 329.252789)"><g><path d="M 22.859375 -85.71875 C 26.359375 -85.351562 29.21875 -83.84375 31.4375 -81.1875 C 33.664062 -78.539062 34.484375 -75.375 33.890625 -71.6875 L 30.140625 -44.140625 C 29.179688 -36.941406 27.96875 -30.820312 26.5 -25.78125 C 25.039062 -20.738281 23.40625 -16.007812 21.59375 -11.59375 C 20.78125 -9.625 19.90625 -7.851562 18.96875 -6.28125 C 18.03125 -4.71875 16.679688 -3.625 14.921875 -3 C 14.628906 -2.394531 14.195312 -2.046875 13.625 -1.953125 C 10.050781 -1.097656 6.890625 -1.40625 4.140625 -2.875 C 1.390625 -4.34375 -0.34375 -6.9375 -1.0625 -10.65625 L -12.390625 -70.953125 C -12.648438 -72.253906 -12.078125 -73.050781 -10.671875 -73.34375 C -7.015625 -74.238281 -3.875 -73.851562 -1.25 -72.1875 C 1.363281 -70.519531 3 -67.910156 3.65625 -64.359375 L 13.953125 -10.40625 C 15.003906 -16.738281 15.863281 -22.628906 16.53125 -28.078125 C 17.207031 -33.535156 17.910156 -39.328125 18.640625 -45.453125 C 19.515625 -52.023438 20.050781 -58.351562 20.25 -64.4375 C 20.457031 -70.53125 20.625 -76.929688 20.75 -83.640625 C 20.757812 -85.035156 21.460938 -85.726562 22.859375 -85.71875 Z M 22.859375 -85.71875 "/></g></g></g><g fill="#1b019b" fill-opacity="1"><g transform="translate(186.237408, 313.407926)"><g><path d="M 52 -51.515625 C 55.46875 -50.734375 57.273438 -48.832031 57.421875 -45.8125 C 57.859375 -37.507812 56.132812 -30.113281 52.25 -23.625 C 48.363281 -17.144531 41.550781 -12.195312 31.8125 -8.78125 C 29.957031 -8.125 27.523438 -7.539062 24.515625 -7.03125 C 21.515625 -6.53125 18.332031 -6.53125 14.96875 -7.03125 C 11.613281 -7.539062 8.375 -8.910156 5.25 -11.140625 C 2.132812 -13.378906 -0.535156 -16.890625 -2.765625 -21.671875 C -4.992188 -26.460938 -6.394531 -32.9375 -6.96875 -41.09375 C -7.644531 -50.101562 -6.957031 -57.5 -4.90625 -63.28125 C -2.863281 -69.070312 0.0859375 -73.46875 3.953125 -76.46875 C 7.816406 -79.46875 12.269531 -81.160156 17.3125 -81.546875 C 21.675781 -83.273438 25.5625 -83.242188 28.96875 -81.453125 C 32.382812 -79.660156 34.953125 -76.660156 36.671875 -72.453125 C 38.398438 -68.242188 38.925781 -63.28125 38.25 -57.5625 C 37.15625 -48.53125 34.429688 -41.632812 30.078125 -36.875 C 25.722656 -32.125 20.785156 -29.273438 15.265625 -28.328125 C 14.585938 -28.285156 13.96875 -28.210938 13.40625 -28.109375 C 12.84375 -28.015625 12.320312 -27.9375 11.84375 -27.875 C 13.988281 -23.457031 16.894531 -20.894531 20.5625 -20.1875 C 24.238281 -19.488281 28.242188 -19.898438 32.578125 -21.421875 C 35.773438 -22.546875 38.867188 -24.078125 41.859375 -26.015625 C 44.859375 -27.960938 47.253906 -30.84375 49.046875 -34.65625 C 50.835938 -38.46875 51.53125 -43.785156 51.125 -50.609375 C 51.050781 -51.378906 51.34375 -51.679688 52 -51.515625 Z M 13.84375 -72.703125 C 10.957031 -71.296875 9.203125 -68.296875 8.578125 -63.703125 C 7.953125 -59.109375 7.851562 -52.804688 8.28125 -44.796875 C 8.507812 -42.191406 8.769531 -39.75 9.0625 -37.46875 C 13.40625 -38.707031 16.613281 -40.179688 18.6875 -41.890625 C 20.757812 -43.609375 22.207031 -45.78125 23.03125 -48.40625 C 23.851562 -51.039062 24.429688 -54.160156 24.765625 -57.765625 C 25.066406 -63.421875 24.441406 -67.46875 22.890625 -69.90625 C 21.335938 -72.351562 18.320312 -73.285156 13.84375 -72.703125 Z M 13.84375 -72.703125 "/></g></g></g><g fill="#1b019b" fill-opacity="1"><g transform="translate(242.396741, 293.695053)"><g><path d="M 59.84375 -54.265625 C 63.300781 -53.484375 65.109375 -51.582031 65.265625 -48.5625 C 65.441406 -40.164062 64.445312 -33.023438 62.28125 -27.140625 C 60.113281 -21.265625 55.753906 -17.179688 49.203125 -14.890625 C 45.316406 -13.515625 41.9375 -12.941406 39.0625 -13.171875 C 36.1875 -13.410156 33.8125 -14.789062 31.9375 -17.3125 C 31.375 -15.238281 30.664062 -13.503906 29.8125 -12.109375 C 28.96875 -10.710938 27.835938 -9.765625 26.421875 -9.265625 C 21.035156 -4.503906 15.929688 -2.613281 11.109375 -3.59375 C 6.285156 -4.582031 2.28125 -8.070312 -0.90625 -14.0625 C -4.101562 -20.0625 -5.957031 -28.035156 -6.46875 -37.984375 C -6.769531 -45.347656 -6.320312 -51.992188 -5.125 -57.921875 C -3.925781 -63.859375 -1.785156 -68.8125 1.296875 -72.78125 C 4.378906 -76.75 8.519531 -79.394531 13.71875 -80.71875 C 15.414062 -82.113281 17.375 -82.625 19.59375 -82.25 C 21.8125 -81.882812 23.929688 -80.664062 25.953125 -78.59375 L 25.765625 -84.21875 C 25.722656 -85.1875 26.144531 -85.828125 27.03125 -86.140625 C 31.007812 -87.535156 34.1875 -87.109375 36.5625 -84.859375 C 38.945312 -82.609375 40.347656 -77.484375 40.765625 -69.484375 L 42.171875 -40.453125 C 42.441406 -34.890625 43.144531 -31.113281 44.28125 -29.125 C 45.425781 -27.132812 47.328125 -26.601562 49.984375 -27.53125 C 51.398438 -28.03125 52.851562 -28.988281 54.34375 -30.40625 C 55.832031 -31.820312 57.046875 -34.3125 57.984375 -37.875 C 58.929688 -41.4375 59.242188 -46.640625 58.921875 -53.484375 C 58.878906 -54.171875 59.1875 -54.429688 59.84375 -54.265625 Z M 20.328125 -14.734375 C 21.867188 -14.878906 23.164062 -15.851562 24.21875 -17.65625 C 25.269531 -19.46875 26.078125 -21.765625 26.640625 -24.546875 C 27.203125 -27.335938 27.429688 -30.304688 27.328125 -33.453125 C 27.210938 -34.898438 27.101562 -36.398438 27 -37.953125 C 26.90625 -39.515625 26.84375 -41.1875 26.8125 -42.96875 L 26.515625 -53.59375 C 26.265625 -60.257812 25.472656 -65.347656 24.140625 -68.859375 C 22.816406 -72.367188 20.601562 -73.582031 17.5 -72.5 C 14.488281 -71.4375 12.101562 -68.3125 10.34375 -63.125 C 8.582031 -57.945312 7.898438 -50.695312 8.296875 -41.375 C 8.546875 -36.695312 9.0625 -32.382812 9.84375 -28.4375 C 10.632812 -24.488281 11.878906 -21.296875 13.578125 -18.859375 C 15.285156 -16.421875 17.535156 -15.046875 20.328125 -14.734375 Z M 20.328125 -14.734375 "/></g></g></g></svg>